%TF.GenerationSoftware,KiCad,Pcbnew,5.1.10-88a1d61d58~90~ubuntu20.04.1*%
%TF.CreationDate,2021-09-30T19:26:00-03:00*%
%TF.ProjectId,project,70726f6a-6563-4742-9e6b-696361645f70,v1.5*%
%TF.SameCoordinates,Original*%
%TF.FileFunction,Paste,Top*%
%TF.FilePolarity,Positive*%
%FSLAX46Y46*%
G04 Gerber Fmt 4.6, Leading zero omitted, Abs format (unit mm)*
G04 Created by KiCad (PCBNEW 5.1.10-88a1d61d58~90~ubuntu20.04.1) date 2021-09-30 19:26:00*
%MOMM*%
%LPD*%
G01*
G04 APERTURE LIST*
%ADD10R,1.500000X2.000000*%
%ADD11R,3.800000X2.000000*%
%ADD12R,0.400000X1.400000*%
%ADD13R,2.300000X1.900000*%
%ADD14R,1.800000X1.900000*%
%ADD15R,1.500000X0.300000*%
%ADD16R,1.560000X0.650000*%
G04 APERTURE END LIST*
%TO.C,C2*%
G36*
G01*
X125237500Y-88475000D02*
X125237500Y-87525000D01*
G75*
G02*
X125487500Y-87275000I250000J0D01*
G01*
X126162500Y-87275000D01*
G75*
G02*
X126412500Y-87525000I0J-250000D01*
G01*
X126412500Y-88475000D01*
G75*
G02*
X126162500Y-88725000I-250000J0D01*
G01*
X125487500Y-88725000D01*
G75*
G02*
X125237500Y-88475000I0J250000D01*
G01*
G37*
G36*
G01*
X123162500Y-88475000D02*
X123162500Y-87525000D01*
G75*
G02*
X123412500Y-87275000I250000J0D01*
G01*
X124087500Y-87275000D01*
G75*
G02*
X124337500Y-87525000I0J-250000D01*
G01*
X124337500Y-88475000D01*
G75*
G02*
X124087500Y-88725000I-250000J0D01*
G01*
X123412500Y-88725000D01*
G75*
G02*
X123162500Y-88475000I0J250000D01*
G01*
G37*
%TD*%
D10*
%TO.C,U3*%
X119200000Y-83900000D03*
X123800000Y-83900000D03*
X121500000Y-83900000D03*
D11*
X121500000Y-77600000D03*
%TD*%
%TO.C,C3*%
G36*
G01*
X120012500Y-87525000D02*
X120012500Y-88475000D01*
G75*
G02*
X119762500Y-88725000I-250000J0D01*
G01*
X119087500Y-88725000D01*
G75*
G02*
X118837500Y-88475000I0J250000D01*
G01*
X118837500Y-87525000D01*
G75*
G02*
X119087500Y-87275000I250000J0D01*
G01*
X119762500Y-87275000D01*
G75*
G02*
X120012500Y-87525000I0J-250000D01*
G01*
G37*
G36*
G01*
X122087500Y-87525000D02*
X122087500Y-88475000D01*
G75*
G02*
X121837500Y-88725000I-250000J0D01*
G01*
X121162500Y-88725000D01*
G75*
G02*
X120912500Y-88475000I0J250000D01*
G01*
X120912500Y-87525000D01*
G75*
G02*
X121162500Y-87275000I250000J0D01*
G01*
X121837500Y-87275000D01*
G75*
G02*
X122087500Y-87525000I0J-250000D01*
G01*
G37*
%TD*%
D12*
%TO.C,J8*%
X122650000Y-56550000D03*
X122000000Y-56550000D03*
X121350000Y-56550000D03*
X120700000Y-56550000D03*
X120050000Y-56550000D03*
D13*
X125100000Y-53700000D03*
X117600000Y-53700000D03*
D14*
X122500000Y-53700000D03*
X120200000Y-53700000D03*
%TD*%
D15*
%TO.C,U2*%
X132500000Y-53000000D03*
X132500000Y-53500000D03*
X132500000Y-54000000D03*
X132500000Y-54500000D03*
X130200000Y-54500000D03*
X130200000Y-54000000D03*
X130200000Y-53500000D03*
X130200000Y-53000000D03*
%TD*%
D16*
%TO.C,U4*%
X131850000Y-60000000D03*
X131850000Y-59050000D03*
X131850000Y-60950000D03*
X129150000Y-60950000D03*
X129150000Y-60000000D03*
X129150000Y-59050000D03*
%TD*%
M02*
