M48
; DRILL file {KiCad 5.1.10-88a1d61d58~90~ubuntu20.04.1} date Thu Sep 30 19:27:09 2021
; FORMAT={-:-/ absolute / metric / decimal}
; #@! TF.CreationDate,2021-09-30T19:27:09-03:00
; #@! TF.GenerationSoftware,Kicad,Pcbnew,5.1.10-88a1d61d58~90~ubuntu20.04.1
; #@! TF.FileFunction,Plated,1,2,PTH
FMAT,2
METRIC
T1C0.400
T2C0.800
T3C0.900
T4C1.000
T5C1.100
T6C1.600
T7C3.200
%
G90
G05
T1
X102.5Y-93.25
X102.5Y-94.5
X103.5Y-134.0
X103.75Y-93.25
X103.75Y-94.5
X105.75Y-116.25
X106.75Y-93.5
X108.0Y-93.5
X117.0Y-80.5
X117.0Y-82.25
X117.0Y-84.25
X117.0Y-86.25
X117.0Y-88.25
X117.0Y-97.0
X117.0Y-99.0
X117.0Y-101.0
X117.375Y-126.375
X118.25Y-81.25
X119.0Y-97.0
X119.0Y-99.0
X119.0Y-101.0
X119.0Y-107.0
X119.0Y-109.0
X119.0Y-111.0
X119.75Y-81.25
X119.8Y-118.8
X119.8Y-124.2
X120.5Y-107.0
X120.5Y-109.0
X120.5Y-111.0
X121.05Y-62.4
X124.5Y-56.25
X125.25Y-91.25
X127.0Y-55.25
X128.2Y-118.4
X128.2Y-121.0
X128.2Y-123.4
X128.2Y-126.0
X128.2Y-128.4
X129.25Y-130.5
X129.6Y-76.6
X132.05Y-94.25
X132.5Y-62.25
X133.0Y-105.5
X133.0Y-108.25
X133.0Y-110.75
X133.0Y-113.25
X133.0Y-115.75
X133.0Y-126.0
X134.75Y-102.25
X135.3Y-87.9
X135.5Y-51.9
X135.5Y-53.0
X135.5Y-56.0
X135.5Y-63.75
X136.0Y-102.25
X136.4Y-129.1
X137.2Y-75.4
X137.5Y-105.5
X137.5Y-108.25
X137.5Y-110.75
X137.5Y-113.25
X140.6Y-127.4
X141.8Y-64.4
X142.0Y-130.5
X145.0Y-60.0
X145.0Y-61.0
X145.0Y-62.0
X148.2Y-115.5
X149.0Y-95.5
X151.4Y-127.1
X151.7Y-130.4
X152.55Y-103.5
X157.0Y-113.5
T2
X117.0Y-67.0
X117.0Y-69.5
X123.0Y-67.0
X123.0Y-69.5
X129.0Y-67.0
X129.0Y-69.5
X135.0Y-67.0
X135.0Y-69.5
X142.5Y-83.5
X142.5Y-87.5
X142.5Y-91.5
X142.5Y-95.5
X142.5Y-99.5
X142.5Y-103.5
X142.5Y-107.5
X142.5Y-111.5
X142.5Y-115.5
X142.5Y-119.5
X142.5Y-123.5
X142.5Y-127.5
X142.55Y-79.5
X144.0Y-132.92
X144.0Y-135.46
X144.0Y-138.0
X144.0Y-140.54
X151.62Y-132.92
X151.62Y-135.46
X151.62Y-138.0
X151.62Y-140.54
X155.2Y-83.5
X155.2Y-87.5
X155.2Y-91.5
X155.2Y-95.5
X155.2Y-99.5
X155.2Y-103.5
X155.2Y-107.5
X155.2Y-111.5
X155.2Y-115.5
X155.2Y-119.5
X155.2Y-123.5
X155.2Y-127.5
X155.25Y-79.5
T3
X117.0Y-137.0
X119.54Y-137.0
X125.0Y-137.0
X127.54Y-137.0
X133.0Y-137.0
X135.54Y-137.0
T4
X99.859Y-119.754
X99.859Y-122.294
X99.859Y-124.834
X99.876Y-109.454
X99.876Y-111.994
X99.876Y-114.534
X99.949Y-96.774
X99.949Y-99.314
X99.949Y-101.854
X99.949Y-104.394
X100.0Y-60.0
X100.0Y-65.0
X100.0Y-70.0
X100.0Y-75.0
X100.0Y-80.0
X100.0Y-84.201
X100.0Y-86.741
X100.0Y-89.281
X100.0Y-91.821
X107.22Y-146.0
X109.76Y-146.0
X112.3Y-146.0
X114.38Y-79.0
X114.38Y-81.54
X114.38Y-84.08
X114.38Y-86.62
X114.38Y-89.16
X114.38Y-91.7
X114.38Y-94.24
X114.38Y-96.78
X114.38Y-99.32
X114.38Y-101.86
X114.38Y-104.4
X114.38Y-106.94
X114.38Y-109.48
X114.38Y-112.02
X114.38Y-114.56
X114.38Y-117.1
X114.38Y-119.64
X114.38Y-122.18
X114.38Y-124.72
X114.38Y-127.26
X114.84Y-146.0
X117.38Y-146.0
X119.92Y-146.0
X122.46Y-146.0
X125.0Y-146.0
X129.62Y-79.0
X129.62Y-81.54
X129.62Y-84.08
X129.62Y-86.62
X129.62Y-89.16
X129.62Y-91.7
X129.62Y-94.24
X129.62Y-96.78
X129.62Y-99.32
X129.62Y-101.86
X129.62Y-104.4
X129.62Y-106.94
X129.62Y-109.48
X129.62Y-112.02
X129.62Y-114.56
X129.62Y-117.1
X129.62Y-119.64
X129.62Y-122.18
X129.62Y-124.72
X129.62Y-127.26
X129.96Y-146.0
X132.5Y-146.0
X135.04Y-146.0
X137.58Y-146.0
X139.0Y-58.0
X139.0Y-62.0
X140.12Y-146.0
X142.66Y-146.0
X145.2Y-146.0
X147.74Y-146.0
T5
X149.0Y-62.0
X151.54Y-62.0
X154.08Y-62.0
T6
X141.0Y-68.0
X141.0Y-74.0
X156.24Y-68.0
X156.24Y-74.0
T7
X100.0Y-55.0
X100.0Y-145.0
X155.0Y-55.0
X155.0Y-145.0
T4
G00X105.3Y-60.0
M15
G01X105.3Y-62.0
M16
G05
G00X111.0Y-58.0
M15
G01X109.0Y-58.0
M16
G05
G00X111.0Y-64.0
M15
G01X109.0Y-64.0
M16
G05
T0
M30
