%TF.GenerationSoftware,KiCad,Pcbnew,5.1.10-88a1d61d58~90~ubuntu20.04.1*%
%TF.CreationDate,2021-09-30T19:26:00-03:00*%
%TF.ProjectId,project,70726f6a-6563-4742-9e6b-696361645f70,v1.5*%
%TF.SameCoordinates,Original*%
%TF.FileFunction,Soldermask,Top*%
%TF.FilePolarity,Negative*%
%FSLAX46Y46*%
G04 Gerber Fmt 4.6, Leading zero omitted, Abs format (unit mm)*
G04 Created by KiCad (PCBNEW 5.1.10-88a1d61d58~90~ubuntu20.04.1) date 2021-09-30 19:26:00*
%MOMM*%
%LPD*%
G01*
G04 APERTURE LIST*
%ADD10R,1.500000X2.000000*%
%ADD11R,3.800000X2.000000*%
%ADD12C,2.000000*%
%ADD13O,1.700000X1.700000*%
%ADD14R,1.700000X1.700000*%
%ADD15O,1.600000X1.600000*%
%ADD16R,1.600000X1.600000*%
%ADD17O,3.200000X3.200000*%
%ADD18R,3.200000X3.200000*%
%ADD19R,0.400000X1.400000*%
%ADD20R,2.300000X1.900000*%
%ADD21R,1.800000X1.900000*%
%ADD22C,1.600000*%
%ADD23O,1.905000X2.000000*%
%ADD24R,1.905000X2.000000*%
%ADD25C,1.800000*%
%ADD26R,1.800000X1.800000*%
%ADD27R,3.500000X3.500000*%
%ADD28R,1.500000X0.300000*%
%ADD29R,1.560000X0.650000*%
%ADD30R,1.500000X1.000000*%
%ADD31C,5.600000*%
%ADD32C,3.600000*%
G04 APERTURE END LIST*
%TO.C,C2*%
G36*
G01*
X125237500Y-88475000D02*
X125237500Y-87525000D01*
G75*
G02*
X125487500Y-87275000I250000J0D01*
G01*
X126162500Y-87275000D01*
G75*
G02*
X126412500Y-87525000I0J-250000D01*
G01*
X126412500Y-88475000D01*
G75*
G02*
X126162500Y-88725000I-250000J0D01*
G01*
X125487500Y-88725000D01*
G75*
G02*
X125237500Y-88475000I0J250000D01*
G01*
G37*
G36*
G01*
X123162500Y-88475000D02*
X123162500Y-87525000D01*
G75*
G02*
X123412500Y-87275000I250000J0D01*
G01*
X124087500Y-87275000D01*
G75*
G02*
X124337500Y-87525000I0J-250000D01*
G01*
X124337500Y-88475000D01*
G75*
G02*
X124087500Y-88725000I-250000J0D01*
G01*
X123412500Y-88725000D01*
G75*
G02*
X123162500Y-88475000I0J250000D01*
G01*
G37*
%TD*%
D10*
%TO.C,U3*%
X119200000Y-83900000D03*
X123800000Y-83900000D03*
X121500000Y-83900000D03*
D11*
X121500000Y-77600000D03*
%TD*%
%TO.C,C3*%
G36*
G01*
X120012500Y-87525000D02*
X120012500Y-88475000D01*
G75*
G02*
X119762500Y-88725000I-250000J0D01*
G01*
X119087500Y-88725000D01*
G75*
G02*
X118837500Y-88475000I0J250000D01*
G01*
X118837500Y-87525000D01*
G75*
G02*
X119087500Y-87275000I250000J0D01*
G01*
X119762500Y-87275000D01*
G75*
G02*
X120012500Y-87525000I0J-250000D01*
G01*
G37*
G36*
G01*
X122087500Y-87525000D02*
X122087500Y-88475000D01*
G75*
G02*
X121837500Y-88725000I-250000J0D01*
G01*
X121162500Y-88725000D01*
G75*
G02*
X120912500Y-88475000I0J250000D01*
G01*
X120912500Y-87525000D01*
G75*
G02*
X121162500Y-87275000I250000J0D01*
G01*
X121837500Y-87275000D01*
G75*
G02*
X122087500Y-87525000I0J-250000D01*
G01*
G37*
%TD*%
%TO.C,BZ1*%
G36*
G01*
X100500000Y-130250000D02*
X100500000Y-131250000D01*
G75*
G02*
X100000000Y-131750000I-500000J0D01*
G01*
X99000000Y-131750000D01*
G75*
G02*
X98500000Y-131250000I0J500000D01*
G01*
X98500000Y-130250000D01*
G75*
G02*
X99000000Y-129750000I500000J0D01*
G01*
X100000000Y-129750000D01*
G75*
G02*
X100500000Y-130250000I0J-500000D01*
G01*
G37*
G36*
G01*
X104500000Y-130250000D02*
X104500000Y-131250000D01*
G75*
G02*
X104000000Y-131750000I-500000J0D01*
G01*
X103000000Y-131750000D01*
G75*
G02*
X102500000Y-131250000I0J500000D01*
G01*
X102500000Y-130250000D01*
G75*
G02*
X103000000Y-129750000I500000J0D01*
G01*
X104000000Y-129750000D01*
G75*
G02*
X104500000Y-130250000I0J-500000D01*
G01*
G37*
%TD*%
%TO.C,BT1*%
G36*
G01*
X142500000Y-53500000D02*
X142500000Y-52500000D01*
G75*
G02*
X143000000Y-52000000I500000J0D01*
G01*
X144000000Y-52000000D01*
G75*
G02*
X144500000Y-52500000I0J-500000D01*
G01*
X144500000Y-53500000D01*
G75*
G02*
X144000000Y-54000000I-500000J0D01*
G01*
X143000000Y-54000000D01*
G75*
G02*
X142500000Y-53500000I0J500000D01*
G01*
G37*
G36*
G01*
X138500000Y-53500000D02*
X138500000Y-52500000D01*
G75*
G02*
X139000000Y-52000000I500000J0D01*
G01*
X140000000Y-52000000D01*
G75*
G02*
X140500000Y-52500000I0J-500000D01*
G01*
X140500000Y-53500000D01*
G75*
G02*
X140000000Y-54000000I-500000J0D01*
G01*
X139000000Y-54000000D01*
G75*
G02*
X138500000Y-53500000I0J500000D01*
G01*
G37*
%TD*%
D12*
%TO.C,TP1*%
X100000000Y-75000000D03*
%TD*%
D13*
%TO.C,U5*%
X129620000Y-119640000D03*
X129620000Y-122180000D03*
X129620000Y-124720000D03*
X129620000Y-127260000D03*
X129620000Y-94240000D03*
X129620000Y-84080000D03*
D14*
X129620000Y-79000000D03*
D13*
X129620000Y-86620000D03*
X129620000Y-99320000D03*
X129620000Y-109480000D03*
X129620000Y-112020000D03*
X129620000Y-114560000D03*
X129620000Y-117100000D03*
X129620000Y-91700000D03*
X129620000Y-96780000D03*
X129620000Y-101860000D03*
X129620000Y-89160000D03*
X129620000Y-104400000D03*
X129620000Y-106940000D03*
X129620000Y-81540000D03*
X114380000Y-119640000D03*
X114380000Y-122180000D03*
X114380000Y-124720000D03*
X114380000Y-127260000D03*
X114380000Y-94240000D03*
X114380000Y-84080000D03*
D14*
X114380000Y-79000000D03*
D13*
X114380000Y-86620000D03*
X114380000Y-99320000D03*
X114380000Y-109480000D03*
X114380000Y-112020000D03*
X114380000Y-114560000D03*
X114380000Y-117100000D03*
X114380000Y-91700000D03*
X114380000Y-96780000D03*
X114380000Y-101860000D03*
X114380000Y-89160000D03*
X114380000Y-104400000D03*
X114380000Y-106940000D03*
X114380000Y-81540000D03*
%TD*%
D15*
%TO.C,U1*%
X151620000Y-132920000D03*
X144000000Y-140540000D03*
X151620000Y-135460000D03*
X144000000Y-138000000D03*
X151620000Y-138000000D03*
X144000000Y-135460000D03*
X151620000Y-140540000D03*
D16*
X144000000Y-132920000D03*
%TD*%
D17*
%TO.C,D4*%
X156240000Y-68000000D03*
D18*
X141000000Y-68000000D03*
%TD*%
D17*
%TO.C,D3*%
X156240000Y-74000000D03*
D18*
X141000000Y-74000000D03*
%TD*%
D19*
%TO.C,J8*%
X122650000Y-56550000D03*
X122000000Y-56550000D03*
X121350000Y-56550000D03*
X120700000Y-56550000D03*
X120050000Y-56550000D03*
D20*
X125100000Y-53700000D03*
X117600000Y-53700000D03*
D21*
X122500000Y-53700000D03*
X120200000Y-53700000D03*
%TD*%
D15*
%TO.C,R5*%
X155200000Y-127500000D03*
D22*
X142500000Y-127500000D03*
%TD*%
D15*
%TO.C,R2*%
X155200000Y-123500000D03*
D22*
X142500000Y-123500000D03*
%TD*%
D15*
%TO.C,R12*%
X155200000Y-87500000D03*
D22*
X142500000Y-87500000D03*
%TD*%
D15*
%TO.C,R11*%
X155200000Y-91500000D03*
D22*
X142500000Y-91500000D03*
%TD*%
D15*
%TO.C,R8*%
X155200000Y-103500000D03*
D22*
X142500000Y-103500000D03*
%TD*%
D15*
%TO.C,R7*%
X155200000Y-119500000D03*
D22*
X142500000Y-119500000D03*
%TD*%
D15*
%TO.C,R13*%
X155200000Y-83500000D03*
D22*
X142500000Y-83500000D03*
%TD*%
D15*
%TO.C,R4*%
X155200000Y-107500000D03*
D22*
X142500000Y-107500000D03*
%TD*%
D15*
%TO.C,R3*%
X155200000Y-111500000D03*
D22*
X142500000Y-111500000D03*
%TD*%
D15*
%TO.C,R10*%
X155200000Y-95500000D03*
D22*
X142500000Y-95500000D03*
%TD*%
D15*
%TO.C,R9*%
X142550000Y-79500000D03*
D22*
X155250000Y-79500000D03*
%TD*%
D15*
%TO.C,R6*%
X155200000Y-115500000D03*
D22*
X142500000Y-115500000D03*
%TD*%
D15*
%TO.C,R1*%
X155200000Y-99500000D03*
D22*
X142500000Y-99500000D03*
%TD*%
%TO.C,C6*%
X135000000Y-69500000D03*
D16*
X135000000Y-67000000D03*
%TD*%
D22*
%TO.C,C5*%
X129000000Y-69500000D03*
D16*
X129000000Y-67000000D03*
%TD*%
D22*
%TO.C,C4*%
X123000000Y-69500000D03*
D16*
X123000000Y-67000000D03*
%TD*%
D22*
%TO.C,C1*%
X117000000Y-69500000D03*
D16*
X117000000Y-67000000D03*
%TD*%
D13*
%TO.C,J3*%
X99859000Y-124834000D03*
X99859000Y-122294000D03*
D14*
X99859000Y-119754000D03*
%TD*%
D13*
%TO.C,J2*%
X99876000Y-114534000D03*
X99876000Y-111994000D03*
D14*
X99876000Y-109454000D03*
%TD*%
D13*
%TO.C,J6*%
X99949000Y-104394000D03*
X99949000Y-101854000D03*
X99949000Y-99314000D03*
D14*
X99949000Y-96774000D03*
%TD*%
D13*
%TO.C,J5*%
X100000000Y-91821000D03*
X100000000Y-89281000D03*
X100000000Y-86741000D03*
D14*
X100000000Y-84201000D03*
%TD*%
D23*
%TO.C,Q1*%
X154080000Y-62000000D03*
X151540000Y-62000000D03*
D24*
X149000000Y-62000000D03*
%TD*%
D12*
%TO.C,TP5*%
X100000000Y-80000000D03*
%TD*%
%TO.C,TP4*%
X100000000Y-70000000D03*
%TD*%
%TO.C,TP3*%
X100000000Y-65000000D03*
%TD*%
%TO.C,TP2*%
X100000000Y-60000000D03*
%TD*%
D25*
%TO.C,D5*%
X119540000Y-137000000D03*
D26*
X117000000Y-137000000D03*
%TD*%
%TO.C,J7*%
G36*
G01*
X104425000Y-59250000D02*
X106175000Y-59250000D01*
G75*
G02*
X107050000Y-60125000I0J-875000D01*
G01*
X107050000Y-61875000D01*
G75*
G02*
X106175000Y-62750000I-875000J0D01*
G01*
X104425000Y-62750000D01*
G75*
G02*
X103550000Y-61875000I0J875000D01*
G01*
X103550000Y-60125000D01*
G75*
G02*
X104425000Y-59250000I875000J0D01*
G01*
G37*
G36*
G01*
X109000000Y-56500000D02*
X111000000Y-56500000D01*
G75*
G02*
X111750000Y-57250000I0J-750000D01*
G01*
X111750000Y-58750000D01*
G75*
G02*
X111000000Y-59500000I-750000J0D01*
G01*
X109000000Y-59500000D01*
G75*
G02*
X108250000Y-58750000I0J750000D01*
G01*
X108250000Y-57250000D01*
G75*
G02*
X109000000Y-56500000I750000J0D01*
G01*
G37*
D27*
X110000000Y-64000000D03*
%TD*%
D13*
%TO.C,J4*%
X129960000Y-146000000D03*
X132500000Y-146000000D03*
X135040000Y-146000000D03*
X137580000Y-146000000D03*
X140120000Y-146000000D03*
X142660000Y-146000000D03*
X145200000Y-146000000D03*
D14*
X147740000Y-146000000D03*
%TD*%
D13*
%TO.C,J1*%
X107220000Y-146000000D03*
X109760000Y-146000000D03*
X112300000Y-146000000D03*
X114840000Y-146000000D03*
X117380000Y-146000000D03*
X119920000Y-146000000D03*
X122460000Y-146000000D03*
D14*
X125000000Y-146000000D03*
%TD*%
D25*
%TO.C,D2*%
X135540000Y-137000000D03*
D26*
X133000000Y-137000000D03*
%TD*%
D25*
%TO.C,D1*%
X127540000Y-137000000D03*
D26*
X125000000Y-137000000D03*
%TD*%
D28*
%TO.C,U2*%
X132500000Y-53000000D03*
X132500000Y-53500000D03*
X132500000Y-54000000D03*
X132500000Y-54500000D03*
X130200000Y-54500000D03*
X130200000Y-54000000D03*
X130200000Y-53500000D03*
X130200000Y-53000000D03*
%TD*%
D29*
%TO.C,U4*%
X131850000Y-60000000D03*
X131850000Y-59050000D03*
X131850000Y-60950000D03*
X129150000Y-60950000D03*
X129150000Y-60000000D03*
X129150000Y-59050000D03*
%TD*%
D12*
%TO.C,L1*%
X139000000Y-58000000D03*
X139000000Y-62000000D03*
%TD*%
D30*
%TO.C,JP2*%
X122650000Y-59350000D03*
X122650000Y-60650000D03*
%TD*%
%TO.C,JP1*%
X110000000Y-67700000D03*
X110000000Y-69000000D03*
%TD*%
D31*
%TO.C,H4*%
X100000000Y-145000000D03*
D32*
X100000000Y-145000000D03*
%TD*%
D31*
%TO.C,H3*%
X155000000Y-145000000D03*
D32*
X155000000Y-145000000D03*
%TD*%
D31*
%TO.C,H2*%
X100000000Y-55000000D03*
D32*
X100000000Y-55000000D03*
%TD*%
D31*
%TO.C,H1*%
X155000000Y-55000000D03*
D32*
X155000000Y-55000000D03*
%TD*%
M02*
