%TF.GenerationSoftware,KiCad,Pcbnew,5.1.10-88a1d61d58~90~ubuntu20.04.1*%
%TF.CreationDate,2021-09-30T19:26:00-03:00*%
%TF.ProjectId,project,70726f6a-6563-4742-9e6b-696361645f70,v1.5*%
%TF.SameCoordinates,Original*%
%TF.FileFunction,Soldermask,Bot*%
%TF.FilePolarity,Negative*%
%FSLAX46Y46*%
G04 Gerber Fmt 4.6, Leading zero omitted, Abs format (unit mm)*
G04 Created by KiCad (PCBNEW 5.1.10-88a1d61d58~90~ubuntu20.04.1) date 2021-09-30 19:26:00*
%MOMM*%
%LPD*%
G01*
G04 APERTURE LIST*
%ADD10C,2.000000*%
%ADD11O,1.700000X1.700000*%
%ADD12R,1.700000X1.700000*%
%ADD13O,1.600000X1.600000*%
%ADD14R,1.600000X1.600000*%
%ADD15O,3.200000X3.200000*%
%ADD16R,3.200000X3.200000*%
%ADD17C,1.600000*%
%ADD18O,1.905000X2.000000*%
%ADD19R,1.905000X2.000000*%
%ADD20C,1.800000*%
%ADD21R,1.800000X1.800000*%
%ADD22R,3.500000X3.500000*%
%ADD23C,5.600000*%
%ADD24C,3.600000*%
G04 APERTURE END LIST*
D10*
%TO.C,TP1*%
X100000000Y-75000000D03*
%TD*%
D11*
%TO.C,U5*%
X129620000Y-119640000D03*
X129620000Y-122180000D03*
X129620000Y-124720000D03*
X129620000Y-127260000D03*
X129620000Y-94240000D03*
X129620000Y-84080000D03*
D12*
X129620000Y-79000000D03*
D11*
X129620000Y-86620000D03*
X129620000Y-99320000D03*
X129620000Y-109480000D03*
X129620000Y-112020000D03*
X129620000Y-114560000D03*
X129620000Y-117100000D03*
X129620000Y-91700000D03*
X129620000Y-96780000D03*
X129620000Y-101860000D03*
X129620000Y-89160000D03*
X129620000Y-104400000D03*
X129620000Y-106940000D03*
X129620000Y-81540000D03*
X114380000Y-119640000D03*
X114380000Y-122180000D03*
X114380000Y-124720000D03*
X114380000Y-127260000D03*
X114380000Y-94240000D03*
X114380000Y-84080000D03*
D12*
X114380000Y-79000000D03*
D11*
X114380000Y-86620000D03*
X114380000Y-99320000D03*
X114380000Y-109480000D03*
X114380000Y-112020000D03*
X114380000Y-114560000D03*
X114380000Y-117100000D03*
X114380000Y-91700000D03*
X114380000Y-96780000D03*
X114380000Y-101860000D03*
X114380000Y-89160000D03*
X114380000Y-104400000D03*
X114380000Y-106940000D03*
X114380000Y-81540000D03*
%TD*%
D13*
%TO.C,U1*%
X151620000Y-132920000D03*
X144000000Y-140540000D03*
X151620000Y-135460000D03*
X144000000Y-138000000D03*
X151620000Y-138000000D03*
X144000000Y-135460000D03*
X151620000Y-140540000D03*
D14*
X144000000Y-132920000D03*
%TD*%
D15*
%TO.C,D4*%
X156240000Y-68000000D03*
D16*
X141000000Y-68000000D03*
%TD*%
D15*
%TO.C,D3*%
X156240000Y-74000000D03*
D16*
X141000000Y-74000000D03*
%TD*%
D13*
%TO.C,R5*%
X155200000Y-127500000D03*
D17*
X142500000Y-127500000D03*
%TD*%
D13*
%TO.C,R2*%
X155200000Y-123500000D03*
D17*
X142500000Y-123500000D03*
%TD*%
D13*
%TO.C,R12*%
X155200000Y-87500000D03*
D17*
X142500000Y-87500000D03*
%TD*%
D13*
%TO.C,R11*%
X155200000Y-91500000D03*
D17*
X142500000Y-91500000D03*
%TD*%
D13*
%TO.C,R8*%
X155200000Y-103500000D03*
D17*
X142500000Y-103500000D03*
%TD*%
D13*
%TO.C,R7*%
X155200000Y-119500000D03*
D17*
X142500000Y-119500000D03*
%TD*%
D13*
%TO.C,R13*%
X155200000Y-83500000D03*
D17*
X142500000Y-83500000D03*
%TD*%
D13*
%TO.C,R4*%
X155200000Y-107500000D03*
D17*
X142500000Y-107500000D03*
%TD*%
D13*
%TO.C,R3*%
X155200000Y-111500000D03*
D17*
X142500000Y-111500000D03*
%TD*%
D13*
%TO.C,R10*%
X155200000Y-95500000D03*
D17*
X142500000Y-95500000D03*
%TD*%
D13*
%TO.C,R9*%
X142550000Y-79500000D03*
D17*
X155250000Y-79500000D03*
%TD*%
D13*
%TO.C,R6*%
X155200000Y-115500000D03*
D17*
X142500000Y-115500000D03*
%TD*%
D13*
%TO.C,R1*%
X155200000Y-99500000D03*
D17*
X142500000Y-99500000D03*
%TD*%
%TO.C,C6*%
X135000000Y-69500000D03*
D14*
X135000000Y-67000000D03*
%TD*%
D17*
%TO.C,C5*%
X129000000Y-69500000D03*
D14*
X129000000Y-67000000D03*
%TD*%
D17*
%TO.C,C4*%
X123000000Y-69500000D03*
D14*
X123000000Y-67000000D03*
%TD*%
D17*
%TO.C,C1*%
X117000000Y-69500000D03*
D14*
X117000000Y-67000000D03*
%TD*%
D11*
%TO.C,J3*%
X99859000Y-124834000D03*
X99859000Y-122294000D03*
D12*
X99859000Y-119754000D03*
%TD*%
D11*
%TO.C,J2*%
X99876000Y-114534000D03*
X99876000Y-111994000D03*
D12*
X99876000Y-109454000D03*
%TD*%
D11*
%TO.C,J6*%
X99949000Y-104394000D03*
X99949000Y-101854000D03*
X99949000Y-99314000D03*
D12*
X99949000Y-96774000D03*
%TD*%
D11*
%TO.C,J5*%
X100000000Y-91821000D03*
X100000000Y-89281000D03*
X100000000Y-86741000D03*
D12*
X100000000Y-84201000D03*
%TD*%
D18*
%TO.C,Q1*%
X154080000Y-62000000D03*
X151540000Y-62000000D03*
D19*
X149000000Y-62000000D03*
%TD*%
D10*
%TO.C,TP5*%
X100000000Y-80000000D03*
%TD*%
%TO.C,TP4*%
X100000000Y-70000000D03*
%TD*%
%TO.C,TP3*%
X100000000Y-65000000D03*
%TD*%
%TO.C,TP2*%
X100000000Y-60000000D03*
%TD*%
D20*
%TO.C,D5*%
X119540000Y-137000000D03*
D21*
X117000000Y-137000000D03*
%TD*%
%TO.C,J7*%
G36*
G01*
X104425000Y-59250000D02*
X106175000Y-59250000D01*
G75*
G02*
X107050000Y-60125000I0J-875000D01*
G01*
X107050000Y-61875000D01*
G75*
G02*
X106175000Y-62750000I-875000J0D01*
G01*
X104425000Y-62750000D01*
G75*
G02*
X103550000Y-61875000I0J875000D01*
G01*
X103550000Y-60125000D01*
G75*
G02*
X104425000Y-59250000I875000J0D01*
G01*
G37*
G36*
G01*
X109000000Y-56500000D02*
X111000000Y-56500000D01*
G75*
G02*
X111750000Y-57250000I0J-750000D01*
G01*
X111750000Y-58750000D01*
G75*
G02*
X111000000Y-59500000I-750000J0D01*
G01*
X109000000Y-59500000D01*
G75*
G02*
X108250000Y-58750000I0J750000D01*
G01*
X108250000Y-57250000D01*
G75*
G02*
X109000000Y-56500000I750000J0D01*
G01*
G37*
D22*
X110000000Y-64000000D03*
%TD*%
D11*
%TO.C,J4*%
X129960000Y-146000000D03*
X132500000Y-146000000D03*
X135040000Y-146000000D03*
X137580000Y-146000000D03*
X140120000Y-146000000D03*
X142660000Y-146000000D03*
X145200000Y-146000000D03*
D12*
X147740000Y-146000000D03*
%TD*%
D11*
%TO.C,J1*%
X107220000Y-146000000D03*
X109760000Y-146000000D03*
X112300000Y-146000000D03*
X114840000Y-146000000D03*
X117380000Y-146000000D03*
X119920000Y-146000000D03*
X122460000Y-146000000D03*
D12*
X125000000Y-146000000D03*
%TD*%
D20*
%TO.C,D2*%
X135540000Y-137000000D03*
D21*
X133000000Y-137000000D03*
%TD*%
D20*
%TO.C,D1*%
X127540000Y-137000000D03*
D21*
X125000000Y-137000000D03*
%TD*%
D10*
%TO.C,L1*%
X139000000Y-58000000D03*
X139000000Y-62000000D03*
%TD*%
D23*
%TO.C,H4*%
X100000000Y-145000000D03*
D24*
X100000000Y-145000000D03*
%TD*%
D23*
%TO.C,H3*%
X155000000Y-145000000D03*
D24*
X155000000Y-145000000D03*
%TD*%
D23*
%TO.C,H2*%
X100000000Y-55000000D03*
D24*
X100000000Y-55000000D03*
%TD*%
D23*
%TO.C,H1*%
X155000000Y-55000000D03*
D24*
X155000000Y-55000000D03*
%TD*%
M02*
